<svg xmlns="http://www.w3.org/2000/svg" xmlns:xlink="http://www.w3.org/1999/xlink" width="500" zoomAndPan="magnify" viewBox="0 0 375 374.999991" height="500" preserveAspectRatio="xMidYMid meet" version="1.0"><defs><clipPath id="a982d13889"><path d="M 157.890625 156.09375 L 228.484375 156.09375 L 228.484375 218.90625 L 157.890625 218.90625 Z M 157.890625 156.09375 " clip-rule="nonzero"/></clipPath><clipPath id="8b8c928f93"><path d="M 211.628906 163.597656 L 204.523438 176.382812 C 203.765625 177.75 203.785156 179.417969 204.578125 180.765625 C 205.371094 182.113281 206.820312 182.941406 208.382812 182.941406 L 223.683594 182.941406 C 226.199219 182.941406 228.242188 184.980469 228.242188 187.5 C 228.242188 190.019531 226.199219 192.058594 223.683594 192.058594 L 208.382812 192.058594 C 206.820312 192.058594 205.371094 192.886719 204.578125 194.234375 C 203.785156 195.582031 203.765625 197.25 204.523438 198.617188 L 211.628906 211.402344 C 212.917969 213.722656 212.210938 216.644531 210.003906 218.117188 C 209.003906 218.78125 207.769531 218.992188 206.609375 218.695312 C 205.445312 218.402344 204.464844 217.625 203.90625 216.566406 L 196.558594 202.605469 C 195.855469 201.269531 194.484375 200.421875 192.976562 200.394531 C 191.46875 200.363281 190.0625 201.152344 189.308594 202.457031 L 181.089844 216.65625 C 180.476562 217.710938 179.460938 218.464844 178.273438 218.742188 C 177.085938 219.019531 175.839844 218.792969 174.828125 218.117188 C 172.644531 216.660156 172 213.742188 173.367188 211.503906 L 181.339844 198.460938 C 182.132812 197.160156 182.160156 195.535156 181.417969 194.207031 C 180.671875 192.882812 179.269531 192.058594 177.75 192.058594 L 162.449219 192.058594 C 159.929688 192.058594 157.890625 190.019531 157.890625 187.5 C 157.890625 184.980469 159.929688 182.941406 162.449219 182.941406 L 177.75 182.941406 C 179.269531 182.941406 180.671875 182.117188 181.417969 180.792969 C 182.160156 179.464844 182.132812 177.839844 181.339844 176.539062 L 173.367188 163.496094 C 172 161.257812 172.644531 158.339844 174.828125 156.882812 C 175.839844 156.207031 177.085938 155.980469 178.273438 156.257812 C 179.460938 156.535156 180.476562 157.289062 181.089844 158.34375 L 189.308594 172.539062 C 190.0625 173.847656 191.46875 174.636719 192.976562 174.605469 C 194.484375 174.578125 195.855469 173.730469 196.558594 172.394531 L 203.90625 158.433594 C 204.464844 157.375 205.445312 156.597656 206.609375 156.304688 C 207.769531 156.007812 209.003906 156.21875 210.003906 156.882812 C 212.210938 158.355469 212.917969 161.277344 211.628906 163.597656 Z M 211.628906 163.597656 " clip-rule="nonzero"/></clipPath><clipPath id="2c4cb42236"><path d="M 0.890625 0.09375 L 71.480469 0.09375 L 71.480469 62.90625 L 0.890625 62.90625 Z M 0.890625 0.09375 " clip-rule="nonzero"/></clipPath><clipPath id="60681b389d"><path d="M 54.628906 7.597656 L 47.523438 20.382812 C 46.765625 21.75 46.785156 23.417969 47.578125 24.765625 C 48.371094 26.113281 49.820312 26.941406 51.382812 26.941406 L 66.683594 26.941406 C 69.199219 26.941406 71.242188 28.980469 71.242188 31.5 C 71.242188 34.019531 69.199219 36.058594 66.683594 36.058594 L 51.382812 36.058594 C 49.820312 36.058594 48.371094 36.886719 47.578125 38.234375 C 46.785156 39.582031 46.765625 41.25 47.523438 42.617188 L 54.628906 55.402344 C 55.917969 57.722656 55.210938 60.644531 53.003906 62.117188 C 52.003906 62.78125 50.769531 62.992188 49.609375 62.695312 C 48.445312 62.402344 47.464844 61.625 46.90625 60.566406 L 39.558594 46.605469 C 38.855469 45.269531 37.484375 44.421875 35.976562 44.394531 C 34.46875 44.363281 33.0625 45.152344 32.308594 46.457031 L 24.089844 60.65625 C 23.476562 61.710938 22.460938 62.464844 21.273438 62.742188 C 20.085938 63.019531 18.839844 62.792969 17.828125 62.117188 C 15.644531 60.660156 15 57.742188 16.367188 55.503906 L 24.339844 42.460938 C 25.132812 41.160156 25.160156 39.535156 24.417969 38.207031 C 23.671875 36.882812 22.269531 36.058594 20.75 36.058594 L 5.449219 36.058594 C 2.929688 36.058594 0.890625 34.019531 0.890625 31.5 C 0.890625 28.980469 2.929688 26.941406 5.449219 26.941406 L 20.75 26.941406 C 22.269531 26.941406 23.671875 26.117188 24.417969 24.792969 C 25.160156 23.464844 25.132812 21.839844 24.339844 20.539062 L 16.367188 7.496094 C 15 5.257812 15.644531 2.339844 17.828125 0.882812 C 18.839844 0.207031 20.085938 -0.0195312 21.273438 0.257812 C 22.460938 0.535156 23.476562 1.289062 24.089844 2.34375 L 32.308594 16.539062 C 33.0625 17.847656 34.46875 18.636719 35.976562 18.605469 C 37.484375 18.578125 38.855469 17.730469 39.558594 16.394531 L 46.90625 2.433594 C 47.464844 1.375 48.445312 0.597656 49.609375 0.304688 C 50.769531 0.0078125 52.003906 0.21875 53.003906 0.882812 C 55.210938 2.355469 55.917969 5.277344 54.628906 7.597656 Z M 54.628906 7.597656 " clip-rule="nonzero"/></clipPath><clipPath id="35488697c5"><rect x="0" width="72" y="0" height="63"/></clipPath><clipPath id="7526e14bf5"><path d="M 157.894531 156 L 228.234375 156 L 228.234375 219 L 157.894531 219 Z M 157.894531 156 " clip-rule="nonzero"/></clipPath><clipPath id="82202af4d6"><path d="M 211.625 163.59375 L 204.519531 176.378906 C 203.761719 177.746094 203.78125 179.414062 204.574219 180.761719 C 205.367188 182.109375 206.816406 182.9375 208.378906 182.9375 L 223.675781 182.9375 C 226.191406 182.9375 228.234375 184.976562 228.234375 187.496094 C 228.234375 190.011719 226.191406 192.054688 223.675781 192.054688 L 208.378906 192.054688 C 206.816406 192.054688 205.367188 192.882812 204.574219 194.230469 C 203.78125 195.578125 203.761719 197.242188 204.519531 198.609375 L 211.625 211.394531 C 212.914062 213.714844 212.207031 216.636719 209.996094 218.105469 C 209 218.773438 207.765625 218.984375 206.605469 218.6875 C 205.441406 218.390625 204.460938 217.617188 203.902344 216.554688 L 196.554688 202.597656 C 195.855469 201.261719 194.480469 200.417969 192.972656 200.386719 C 191.46875 200.355469 190.0625 201.148438 189.304688 202.453125 L 181.089844 216.648438 C 180.476562 217.699219 179.460938 218.457031 178.273438 218.730469 C 177.085938 219.007812 175.839844 218.78125 174.828125 218.105469 C 172.644531 216.652344 172 213.730469 173.367188 211.492188 L 181.335938 198.453125 C 182.128906 197.15625 182.160156 195.53125 181.417969 194.203125 C 180.671875 192.875 179.269531 192.054688 177.75 192.054688 L 162.453125 192.054688 C 159.933594 192.054688 157.894531 190.011719 157.894531 187.496094 C 157.894531 184.976562 159.933594 182.9375 162.453125 182.9375 L 177.75 182.9375 C 179.269531 182.9375 180.671875 182.113281 181.417969 180.789062 C 182.160156 179.460938 182.128906 177.835938 181.335938 176.539062 L 173.367188 163.496094 C 172 161.257812 172.644531 158.339844 174.828125 156.882812 C 175.839844 156.207031 177.085938 155.980469 178.273438 156.257812 C 179.460938 156.535156 180.476562 157.289062 181.089844 158.34375 L 189.304688 172.539062 C 190.0625 173.84375 191.46875 174.632812 192.972656 174.605469 C 194.480469 174.574219 195.855469 173.726562 196.554688 172.390625 L 203.902344 158.433594 C 204.460938 157.375 205.441406 156.597656 206.605469 156.304688 C 207.765625 156.007812 209 156.21875 209.996094 156.882812 C 212.207031 158.355469 212.914062 161.273438 211.625 163.59375 Z M 211.625 163.59375 " clip-rule="nonzero"/></clipPath></defs><g clip-path="url(#a982d13889)"><g clip-path="url(#8b8c928f93)"><g transform="matrix(1, 0, 0, 1, 157, 156)"><g clip-path="url(#35488697c5)"><g clip-path="url(#2c4cb42236)"><g clip-path="url(#60681b389d)"><path fill="#000000" d="M 0.890625 -1.722656 L 71.226562 -1.722656 L 71.226562 64.722656 L 0.890625 64.722656 Z M 0.890625 -1.722656 " fill-opacity="1" fill-rule="nonzero"/></g></g></g></g></g></g><g clip-path="url(#7526e14bf5)"><g clip-path="url(#82202af4d6)"><path stroke-linecap="butt" transform="matrix(0.75, 0, 0, 0.75, 157.892865, 154.278271)" fill="none" stroke-linejoin="miter" d="M 71.642857 12.420641 L 62.168897 29.467518 C 61.15848 31.290435 61.184522 33.514393 62.241814 35.311269 C 63.299105 37.108144 65.231397 38.212311 67.314731 38.212311 L 87.710567 38.212311 C 91.064734 38.212311 93.788693 40.931061 93.788693 44.290437 C 93.788693 47.644604 91.064734 50.368562 87.710567 50.368562 L 67.314731 50.368562 C 65.231397 50.368562 63.299105 51.472729 62.241814 53.269604 C 61.184522 55.06648 61.15848 57.28523 62.168897 59.108147 L 71.642857 76.155024 C 73.361607 79.248774 72.418898 83.144608 69.470981 85.102942 C 68.142856 85.993567 66.497023 86.274817 64.950147 85.878984 C 63.398064 85.48315 62.090772 84.4519 61.34598 83.035233 L 51.549104 64.425856 C 50.616812 62.644606 48.783479 61.519605 46.773062 61.477939 C 44.767853 61.436272 42.892853 62.493564 41.882436 64.233147 L 30.92931 83.160233 C 30.111601 84.561275 28.757434 85.571692 27.174101 85.936275 C 25.590767 86.306067 23.929309 86.003984 22.58035 85.102942 C 19.668892 83.165442 18.809516 79.269608 20.632433 76.285232 L 31.257435 58.899813 C 32.314726 57.170647 32.356393 55.00398 31.36681 53.233146 C 30.372018 51.462312 28.502226 50.368562 26.476184 50.368562 L 6.080348 50.368562 C 2.720973 50.368562 0.00222229 47.644604 0.00222229 44.290437 C 0.00222229 40.931061 2.720973 38.212311 6.080348 38.212311 L 26.476184 38.212311 C 28.502226 38.212311 30.372018 37.113352 31.36681 35.347727 C 32.356393 33.576893 32.314726 31.410227 31.257435 29.68106 L 20.632433 12.290432 C 18.809516 9.306057 19.668892 5.415431 22.58035 3.472723 C 23.929309 2.571681 25.590767 2.269598 27.174101 2.639389 C 28.757434 3.009181 30.111601 4.01439 30.92931 5.42064 L 41.882436 24.347726 C 42.892853 26.087309 44.767853 27.139393 46.773062 27.102934 C 48.783479 27.061268 50.616812 25.931059 51.549104 24.149809 L 61.34598 5.540431 C 62.090772 4.128973 63.398064 3.092515 64.950147 2.701889 C 66.497023 2.306056 68.142856 2.587306 69.470981 3.472723 C 72.418898 5.436265 73.361607 9.32689 71.642857 12.420641 Z M 71.642857 12.420641 " stroke="#000000" stroke-width="200" stroke-opacity="1" stroke-miterlimit="4"/></g></g></svg>