<svg xmlns="http://www.w3.org/2000/svg" xmlns:xlink="http://www.w3.org/1999/xlink" width="500" zoomAndPan="magnify" viewBox="0 0 375 374.999991" height="500" preserveAspectRatio="xMidYMid meet" version="1.0"><defs><clipPath id="d3c79752d8"><path d="M 152.324219 156.09375 L 222.921875 156.09375 L 222.921875 218.90625 L 152.324219 218.90625 Z M 152.324219 156.09375 " clip-rule="nonzero"/></clipPath><clipPath id="e803a8a417"><path d="M 206.0625 163.597656 L 198.960938 176.382812 C 198.199219 177.75 198.21875 179.417969 199.011719 180.765625 C 199.804688 182.113281 201.253906 182.941406 202.816406 182.941406 L 218.117188 182.941406 C 220.632812 182.941406 222.675781 184.980469 222.675781 187.5 C 222.675781 190.019531 220.632812 192.058594 218.117188 192.058594 L 202.816406 192.058594 C 201.253906 192.058594 199.804688 192.886719 199.011719 194.234375 C 198.21875 195.582031 198.199219 197.25 198.960938 198.617188 L 206.0625 211.402344 C 207.351562 213.722656 206.644531 216.644531 204.4375 218.117188 C 203.4375 218.78125 202.207031 218.992188 201.042969 218.695312 C 199.882812 218.402344 198.898438 217.625 198.339844 216.566406 L 190.992188 202.605469 C 190.289062 201.269531 188.917969 200.421875 187.410156 200.394531 C 185.902344 200.363281 184.496094 201.152344 183.742188 202.457031 L 175.523438 216.65625 C 174.914062 217.710938 173.894531 218.464844 172.707031 218.742188 C 171.519531 219.019531 170.273438 218.792969 169.261719 218.117188 C 167.078125 216.660156 166.433594 213.742188 167.800781 211.503906 L 175.773438 198.460938 C 176.566406 197.160156 176.597656 195.535156 175.851562 194.207031 C 175.109375 192.882812 173.703125 192.058594 172.183594 192.058594 L 156.882812 192.058594 C 154.367188 192.058594 152.324219 190.019531 152.324219 187.5 C 152.324219 184.980469 154.367188 182.941406 156.882812 182.941406 L 172.183594 182.941406 C 173.703125 182.941406 175.109375 182.117188 175.851562 180.792969 C 176.597656 179.464844 176.566406 177.839844 175.773438 176.539062 L 167.800781 163.496094 C 166.433594 161.257812 167.078125 158.339844 169.261719 156.882812 C 170.273438 156.207031 171.519531 155.980469 172.707031 156.257812 C 173.894531 156.535156 174.914062 157.289062 175.523438 158.34375 L 183.742188 172.539062 C 184.496094 173.847656 185.902344 174.636719 187.410156 174.605469 C 188.917969 174.578125 190.289062 173.730469 190.992188 172.394531 L 198.339844 158.433594 C 198.898438 157.375 199.882812 156.597656 201.042969 156.304688 C 202.207031 156.007812 203.4375 156.21875 204.4375 156.882812 C 206.644531 158.355469 207.351562 161.277344 206.0625 163.597656 Z M 206.0625 163.597656 " clip-rule="nonzero"/></clipPath><clipPath id="6cb2b5c7bb"><path d="M 0.324219 0.09375 L 70.71875 0.09375 L 70.71875 62.90625 L 0.324219 62.90625 Z M 0.324219 0.09375 " clip-rule="nonzero"/></clipPath><clipPath id="7b8431b00f"><path d="M 54.0625 7.597656 L 46.960938 20.382812 C 46.199219 21.75 46.21875 23.417969 47.011719 24.765625 C 47.804688 26.113281 49.253906 26.941406 50.816406 26.941406 L 66.117188 26.941406 C 68.632812 26.941406 70.675781 28.980469 70.675781 31.5 C 70.675781 34.019531 68.632812 36.058594 66.117188 36.058594 L 50.816406 36.058594 C 49.253906 36.058594 47.804688 36.886719 47.011719 38.234375 C 46.21875 39.582031 46.199219 41.25 46.960938 42.617188 L 54.0625 55.402344 C 55.351562 57.722656 54.644531 60.644531 52.4375 62.117188 C 51.4375 62.78125 50.207031 62.992188 49.042969 62.695312 C 47.882812 62.402344 46.898438 61.625 46.339844 60.566406 L 38.992188 46.605469 C 38.289062 45.269531 36.917969 44.421875 35.410156 44.394531 C 33.902344 44.363281 32.496094 45.152344 31.742188 46.457031 L 23.523438 60.65625 C 22.914062 61.710938 21.894531 62.464844 20.707031 62.742188 C 19.519531 63.019531 18.273438 62.792969 17.261719 62.117188 C 15.078125 60.660156 14.433594 57.742188 15.800781 55.503906 L 23.773438 42.460938 C 24.566406 41.160156 24.597656 39.535156 23.851562 38.207031 C 23.109375 36.882812 21.703125 36.058594 20.183594 36.058594 L 4.882812 36.058594 C 2.367188 36.058594 0.324219 34.019531 0.324219 31.5 C 0.324219 28.980469 2.367188 26.941406 4.882812 26.941406 L 20.183594 26.941406 C 21.703125 26.941406 23.109375 26.117188 23.851562 24.792969 C 24.597656 23.464844 24.566406 21.839844 23.773438 20.539062 L 15.800781 7.496094 C 14.433594 5.257812 15.078125 2.339844 17.261719 0.882812 C 18.273438 0.207031 19.519531 -0.0195312 20.707031 0.257812 C 21.894531 0.535156 22.914062 1.289062 23.523438 2.34375 L 31.742188 16.539062 C 32.496094 17.847656 33.902344 18.636719 35.410156 18.605469 C 36.917969 18.578125 38.289062 17.730469 38.992188 16.394531 L 46.339844 2.433594 C 46.898438 1.375 47.882812 0.597656 49.042969 0.304688 C 50.207031 0.0078125 51.4375 0.21875 52.4375 0.882812 C 54.644531 2.355469 55.351562 5.277344 54.0625 7.597656 Z M 54.0625 7.597656 " clip-rule="nonzero"/></clipPath><clipPath id="375a69e51e"><rect x="0" width="71" y="0" height="63"/></clipPath><clipPath id="7e073d3bca"><path d="M 152.328125 156 L 222.667969 156 L 222.667969 219 L 152.328125 219 Z M 152.328125 156 " clip-rule="nonzero"/></clipPath><clipPath id="b39a67dcf4"><path d="M 206.058594 163.59375 L 198.957031 176.378906 C 198.195312 177.746094 198.214844 179.414062 199.007812 180.761719 C 199.800781 182.109375 201.25 182.9375 202.8125 182.9375 L 218.109375 182.9375 C 220.628906 182.9375 222.667969 184.976562 222.667969 187.496094 C 222.667969 190.011719 220.628906 192.054688 218.109375 192.054688 L 202.8125 192.054688 C 201.25 192.054688 199.800781 192.882812 199.007812 194.230469 C 198.214844 195.578125 198.195312 197.242188 198.957031 198.609375 L 206.058594 211.394531 C 207.347656 213.714844 206.640625 216.636719 204.433594 218.105469 C 203.433594 218.773438 202.203125 218.984375 201.039062 218.6875 C 199.878906 218.390625 198.894531 217.617188 198.335938 216.554688 L 190.992188 202.597656 C 190.289062 201.261719 188.917969 200.417969 187.410156 200.386719 C 185.902344 200.355469 184.496094 201.148438 183.742188 202.453125 L 175.523438 216.648438 C 174.914062 217.699219 173.894531 218.457031 172.707031 218.730469 C 171.523438 219.007812 170.273438 218.78125 169.261719 218.105469 C 167.078125 216.652344 166.433594 213.730469 167.800781 211.492188 L 175.773438 198.453125 C 176.566406 197.15625 176.59375 195.53125 175.851562 194.203125 C 175.105469 192.875 173.703125 192.054688 172.183594 192.054688 L 156.886719 192.054688 C 154.367188 192.054688 152.328125 190.011719 152.328125 187.496094 C 152.328125 184.976562 154.367188 182.9375 156.886719 182.9375 L 172.183594 182.9375 C 173.703125 182.9375 175.105469 182.113281 175.851562 180.789062 C 176.59375 179.460938 176.566406 177.835938 175.773438 176.539062 L 167.800781 163.496094 C 166.433594 161.257812 167.078125 158.339844 169.261719 156.882812 C 170.273438 156.207031 171.523438 155.980469 172.707031 156.257812 C 173.894531 156.535156 174.914062 157.289062 175.523438 158.34375 L 183.742188 172.539062 C 184.496094 173.84375 185.902344 174.632812 187.410156 174.605469 C 188.917969 174.574219 190.289062 173.726562 190.992188 172.390625 L 198.335938 158.433594 C 198.894531 157.375 199.878906 156.597656 201.039062 156.304688 C 202.203125 156.007812 203.433594 156.21875 204.433594 156.882812 C 206.640625 158.355469 207.347656 161.273438 206.058594 163.59375 Z M 206.058594 163.59375 " clip-rule="nonzero"/></clipPath></defs><g clip-path="url(#d3c79752d8)"><g clip-path="url(#e803a8a417)"><g transform="matrix(1, 0, 0, 1, 152, 156)"><g clip-path="url(#375a69e51e)"><g clip-path="url(#6cb2b5c7bb)"><g clip-path="url(#7b8431b00f)"><path fill="#ffffff" d="M 0.324219 -1.722656 L 70.660156 -1.722656 L 70.660156 64.722656 L 0.324219 64.722656 Z M 0.324219 -1.722656 " fill-opacity="1" fill-rule="nonzero"/></g></g></g></g></g></g><g clip-path="url(#7e073d3bca)"><g clip-path="url(#b39a67dcf4)"><path stroke-linecap="butt" transform="matrix(0.75, 0, 0, 0.75, 152.327176, 154.278271)" fill="none" stroke-linejoin="miter" d="M 71.641899 12.420641 L 62.173148 29.467518 C 61.157523 31.290435 61.183565 33.514393 62.240857 35.311269 C 63.298148 37.108144 65.23044 38.212311 67.313774 38.212311 L 87.70961 38.212311 C 91.068985 38.212311 93.787736 40.931061 93.787736 44.290437 C 93.787736 47.644604 91.068985 50.368562 87.70961 50.368562 L 67.313774 50.368562 C 65.23044 50.368562 63.298148 51.472729 62.240857 53.269604 C 61.183565 55.06648 61.157523 57.28523 62.173148 59.108147 L 71.641899 76.155024 C 73.36065 79.248774 72.417941 83.144608 69.475233 85.102942 C 68.141899 85.993567 66.501274 86.274817 64.94919 85.878984 C 63.402315 85.48315 62.089815 84.4519 61.345023 83.035233 L 51.553355 64.425856 C 50.615855 62.644606 48.78773 61.519605 46.777313 61.477939 C 44.766896 61.436272 42.891896 62.493564 41.886687 64.233147 L 30.928353 83.160233 C 30.115852 84.561275 28.756477 85.571692 27.173144 85.936275 C 25.595019 86.306067 23.928352 86.003984 22.579393 85.102942 C 19.667934 83.165442 18.808559 79.269608 20.631476 76.285232 L 31.261686 58.899813 C 32.318978 57.170647 32.355436 55.00398 31.365853 53.233146 C 30.371061 51.462312 28.501269 50.368562 26.475227 50.368562 L 6.079391 50.368562 C 2.720016 50.368562 0.0012652 47.644604 0.0012652 44.290437 C 0.0012652 40.931061 2.720016 38.212311 6.079391 38.212311 L 26.475227 38.212311 C 28.501269 38.212311 30.371061 37.113352 31.365853 35.347727 C 32.355436 33.576893 32.318978 31.410227 31.261686 29.68106 L 20.631476 12.290432 C 18.808559 9.306057 19.667934 5.415431 22.579393 3.472723 C 23.928352 2.571681 25.595019 2.269598 27.173144 2.639389 C 28.756477 3.009181 30.115852 4.01439 30.928353 5.42064 L 41.886687 24.347726 C 42.891896 26.087309 44.766896 27.139393 46.777313 27.102934 C 48.78773 27.061268 50.615855 25.931059 51.553355 24.149809 L 61.345023 5.540431 C 62.089815 4.128973 63.402315 3.092515 64.94919 2.701889 C 66.501274 2.306056 68.141899 2.587306 69.475233 3.472723 C 72.417941 5.436265 73.36065 9.32689 71.641899 12.420641 Z M 71.641899 12.420641 " stroke="#000000" stroke-width="200" stroke-opacity="1" stroke-miterlimit="4"/></g></g></svg>