<svg xmlns="http://www.w3.org/2000/svg" xmlns:xlink="http://www.w3.org/1999/xlink" width="500" zoomAndPan="magnify" viewBox="0 0 375 374.999991" height="500" preserveAspectRatio="xMidYMid meet" version="1.0"><defs><g/><clipPath id="6ea5cbdc5c"><path d="M 81.515625 156.09375 L 152 156.09375 L 152 218.90625 L 81.515625 218.90625 Z M 81.515625 156.09375 " clip-rule="nonzero"/></clipPath><clipPath id="6458e90720"><path d="M 135.257812 163.597656 L 128.152344 176.382812 C 127.390625 177.75 127.414062 179.417969 128.207031 180.765625 C 129 182.113281 130.445312 182.941406 132.007812 182.941406 L 147.308594 182.941406 C 149.828125 182.941406 151.867188 184.980469 151.867188 187.5 C 151.867188 190.019531 149.828125 192.058594 147.308594 192.058594 L 132.007812 192.058594 C 130.445312 192.058594 129 192.886719 128.207031 194.234375 C 127.414062 195.582031 127.390625 197.25 128.152344 198.617188 L 135.257812 211.402344 C 136.546875 213.722656 135.835938 216.644531 133.628906 218.117188 C 132.632812 218.78125 131.398438 218.992188 130.234375 218.695312 C 129.074219 218.402344 128.089844 217.625 127.53125 216.566406 L 120.1875 202.605469 C 119.484375 201.269531 118.109375 200.421875 116.601562 200.394531 C 115.09375 200.363281 113.691406 201.152344 112.933594 202.457031 L 104.714844 216.65625 C 104.105469 217.710938 103.085938 218.464844 101.898438 218.742188 C 100.714844 219.019531 99.464844 218.792969 98.453125 218.117188 C 96.269531 216.660156 95.625 213.742188 96.996094 211.503906 L 104.964844 198.460938 C 105.757812 197.160156 105.789062 195.535156 105.042969 194.207031 C 104.300781 192.882812 102.898438 192.058594 101.375 192.058594 L 86.078125 192.058594 C 83.558594 192.058594 81.515625 190.019531 81.515625 187.5 C 81.515625 184.980469 83.558594 182.941406 86.078125 182.941406 L 101.375 182.941406 C 102.898438 182.941406 104.300781 182.117188 105.042969 180.792969 C 105.789062 179.464844 105.757812 177.839844 104.964844 176.539062 L 96.996094 163.496094 C 95.625 161.257812 96.269531 158.339844 98.453125 156.882812 C 99.464844 156.207031 100.714844 155.980469 101.898438 156.257812 C 103.085938 156.535156 104.105469 157.289062 104.714844 158.34375 L 112.933594 172.539062 C 113.691406 173.847656 115.09375 174.636719 116.601562 174.605469 C 118.109375 174.578125 119.484375 173.730469 120.1875 172.394531 L 127.53125 158.433594 C 128.089844 157.375 129.074219 156.597656 130.234375 156.304688 C 131.398438 156.007812 132.632812 156.21875 133.628906 156.882812 C 135.835938 158.355469 136.546875 161.277344 135.257812 163.597656 Z M 135.257812 163.597656 " clip-rule="nonzero"/></clipPath><clipPath id="c89dec84e1"><path d="M 0.515625 0.09375 L 70.921875 0.09375 L 70.921875 62.90625 L 0.515625 62.90625 Z M 0.515625 0.09375 " clip-rule="nonzero"/></clipPath><clipPath id="9053b37919"><path d="M 54.257812 7.597656 L 47.152344 20.382812 C 46.390625 21.75 46.414062 23.417969 47.207031 24.765625 C 48 26.113281 49.445312 26.941406 51.007812 26.941406 L 66.308594 26.941406 C 68.828125 26.941406 70.867188 28.980469 70.867188 31.5 C 70.867188 34.019531 68.828125 36.058594 66.308594 36.058594 L 51.007812 36.058594 C 49.445312 36.058594 48 36.886719 47.207031 38.234375 C 46.414062 39.582031 46.390625 41.25 47.152344 42.617188 L 54.257812 55.402344 C 55.546875 57.722656 54.835938 60.644531 52.628906 62.117188 C 51.632812 62.78125 50.398438 62.992188 49.234375 62.695312 C 48.074219 62.402344 47.089844 61.625 46.53125 60.566406 L 39.1875 46.605469 C 38.484375 45.269531 37.109375 44.421875 35.601562 44.394531 C 34.09375 44.363281 32.691406 45.152344 31.933594 46.457031 L 23.714844 60.65625 C 23.105469 61.710938 22.085938 62.464844 20.898438 62.742188 C 19.714844 63.019531 18.464844 62.792969 17.453125 62.117188 C 15.269531 60.660156 14.625 57.742188 15.996094 55.503906 L 23.964844 42.460938 C 24.757812 41.160156 24.789062 39.535156 24.042969 38.207031 C 23.300781 36.882812 21.898438 36.058594 20.375 36.058594 L 5.078125 36.058594 C 2.558594 36.058594 0.515625 34.019531 0.515625 31.5 C 0.515625 28.980469 2.558594 26.941406 5.078125 26.941406 L 20.375 26.941406 C 21.898438 26.941406 23.300781 26.117188 24.042969 24.792969 C 24.789062 23.464844 24.757812 21.839844 23.964844 20.539062 L 15.996094 7.496094 C 14.625 5.257812 15.269531 2.339844 17.453125 0.882812 C 18.464844 0.207031 19.714844 -0.0195312 20.898438 0.257812 C 22.085938 0.535156 23.105469 1.289062 23.714844 2.34375 L 31.933594 16.539062 C 32.691406 17.847656 34.09375 18.636719 35.601562 18.605469 C 37.109375 18.578125 38.484375 17.730469 39.1875 16.394531 L 46.53125 2.433594 C 47.089844 1.375 48.074219 0.597656 49.234375 0.304688 C 50.398438 0.0078125 51.632812 0.21875 52.628906 0.882812 C 54.835938 2.355469 55.546875 5.277344 54.257812 7.597656 Z M 54.257812 7.597656 " clip-rule="nonzero"/></clipPath><clipPath id="c4b376a6cd"><rect x="0" width="71" y="0" height="63"/></clipPath><clipPath id="188d24b7c8"><path d="M 81.519531 156 L 151.859375 156 L 151.859375 219 L 81.519531 219 Z M 81.519531 156 " clip-rule="nonzero"/></clipPath><clipPath id="85b246d640"><path d="M 135.25 163.59375 L 128.148438 176.378906 C 127.390625 177.746094 127.410156 179.414062 128.203125 180.761719 C 128.996094 182.109375 130.441406 182.9375 132.003906 182.9375 L 147.300781 182.9375 C 149.820312 182.9375 151.859375 184.976562 151.859375 187.496094 C 151.859375 190.011719 149.820312 192.054688 147.300781 192.054688 L 132.003906 192.054688 C 130.441406 192.054688 128.996094 192.882812 128.203125 194.230469 C 127.410156 195.578125 127.390625 197.242188 128.148438 198.609375 L 135.25 211.394531 C 136.539062 213.714844 135.832031 216.636719 133.625 218.105469 C 132.628906 218.773438 131.394531 218.984375 130.230469 218.6875 C 129.070312 218.390625 128.085938 217.617188 127.53125 216.554688 L 120.183594 202.597656 C 119.480469 201.261719 118.109375 200.417969 116.601562 200.386719 C 115.09375 200.355469 113.6875 201.148438 112.933594 202.453125 L 104.714844 216.648438 C 104.105469 217.699219 103.085938 218.457031 101.898438 218.730469 C 100.714844 219.007812 99.46875 218.78125 98.453125 218.105469 C 96.269531 216.652344 95.628906 213.730469 96.996094 211.492188 L 104.964844 198.453125 C 105.757812 197.15625 105.789062 195.53125 105.042969 194.203125 C 104.300781 192.875 102.898438 192.054688 101.375 192.054688 L 86.078125 192.054688 C 83.5625 192.054688 81.519531 190.011719 81.519531 187.496094 C 81.519531 184.976562 83.5625 182.9375 86.078125 182.9375 L 101.375 182.9375 C 102.898438 182.9375 104.300781 182.113281 105.042969 180.789062 C 105.789062 179.460938 105.757812 177.835938 104.964844 176.539062 L 96.996094 163.496094 C 95.628906 161.257812 96.269531 158.339844 98.453125 156.882812 C 99.46875 156.207031 100.714844 155.980469 101.898438 156.257812 C 103.085938 156.535156 104.105469 157.289062 104.714844 158.34375 L 112.933594 172.539062 C 113.6875 173.84375 115.09375 174.632812 116.601562 174.605469 C 118.109375 174.574219 119.480469 173.726562 120.183594 172.390625 L 127.53125 158.433594 C 128.085938 157.375 129.070312 156.597656 130.230469 156.304688 C 131.394531 156.007812 132.628906 156.21875 133.625 156.882812 C 135.832031 158.355469 136.539062 161.273438 135.25 163.59375 Z M 135.25 163.59375 " clip-rule="nonzero"/></clipPath></defs><g clip-path="url(#6ea5cbdc5c)"><g clip-path="url(#6458e90720)"><g transform="matrix(1, 0, 0, 1, 81, 156)"><g clip-path="url(#c4b376a6cd)"><g clip-path="url(#c89dec84e1)"><g clip-path="url(#9053b37919)"><path fill="#ffffff" d="M 0.515625 -1.722656 L 70.851562 -1.722656 L 70.851562 64.722656 L 0.515625 64.722656 Z M 0.515625 -1.722656 " fill-opacity="1" fill-rule="nonzero"/></g></g></g></g></g></g><g clip-path="url(#188d24b7c8)"><g clip-path="url(#85b246d640)"><path stroke-linecap="butt" transform="matrix(0.75, 0, 0, 0.75, 81.519873, 154.278271)" fill="none" stroke-linejoin="miter" d="M 71.640179 12.420641 L 62.171428 29.467518 C 61.161011 31.290435 61.187053 33.514393 62.244344 35.311269 C 63.301636 37.108144 65.22872 38.212311 67.312053 38.212311 L 87.707889 38.212311 C 91.067265 38.212311 93.786015 40.931061 93.786015 44.290437 C 93.786015 47.644604 91.067265 50.368562 87.707889 50.368562 L 67.312053 50.368562 C 65.22872 50.368562 63.301636 51.472729 62.244344 53.269604 C 61.187053 55.06648 61.161011 57.28523 62.171428 59.108147 L 71.640179 76.155024 C 73.358929 79.248774 72.416221 83.144608 69.473512 85.102942 C 68.145387 85.993567 66.499553 86.274817 64.94747 85.878984 C 63.400595 85.48315 62.088094 84.4519 61.348511 83.035233 L 51.551635 64.425856 C 50.614135 62.644606 48.786009 61.519605 46.775592 61.477939 C 44.765175 61.436272 42.890175 62.493564 41.884967 64.233147 L 30.926632 83.160233 C 30.114132 84.561275 28.754757 85.571692 27.171423 85.936275 C 25.593298 86.306067 23.931839 86.003984 22.577673 85.102942 C 19.666214 83.165442 18.812047 79.269608 20.634964 76.285232 L 31.259965 58.899813 C 32.317257 57.170647 32.358924 55.00398 31.364132 53.233146 C 30.374549 51.462312 28.504757 50.368562 26.473506 50.368562 L 6.07767 50.368562 C 2.723503 50.368562 -0.000455329 47.644604 -0.000455329 44.290437 C -0.000455329 40.931061 2.723503 38.212311 6.07767 38.212311 L 26.473506 38.212311 C 28.504757 38.212311 30.374549 37.113352 31.364132 35.347727 C 32.358924 33.576893 32.317257 31.410227 31.259965 29.68106 L 20.634964 12.290432 C 18.812047 9.306057 19.666214 5.415431 22.577673 3.472723 C 23.931839 2.571681 25.593298 2.269598 27.171423 2.639389 C 28.754757 3.009181 30.114132 4.01439 30.926632 5.42064 L 41.884967 24.347726 C 42.890175 26.087309 44.765175 27.139393 46.775592 27.102934 C 48.786009 27.061268 50.614135 25.931059 51.551635 24.149809 L 61.348511 5.540431 C 62.088094 4.128973 63.400595 3.092515 64.94747 2.701889 C 66.499553 2.306056 68.145387 2.587306 69.473512 3.472723 C 72.416221 5.436265 73.358929 9.32689 71.640179 12.420641 Z M 71.640179 12.420641 " stroke="#000000" stroke-width="200" stroke-opacity="1" stroke-miterlimit="4"/></g></g><g fill="#ffffff" fill-opacity="1"><g transform="translate(151.868623, 194.249987)"><g><path d="M 7.640625 -14.25 C 8.429688 -14.25 9.210938 -14.160156 9.984375 -13.984375 C 10.765625 -13.804688 11.34375 -13.628906 11.71875 -13.453125 L 12.28125 -13.171875 L 10.71875 -10.046875 C 9.632812 -10.617188 8.609375 -10.90625 7.640625 -10.90625 C 7.097656 -10.90625 6.710938 -10.847656 6.484375 -10.734375 C 6.265625 -10.617188 6.15625 -10.398438 6.15625 -10.078125 C 6.15625 -10.003906 6.160156 -9.929688 6.171875 -9.859375 C 6.191406 -9.785156 6.226562 -9.71875 6.28125 -9.65625 C 6.34375 -9.59375 6.394531 -9.535156 6.4375 -9.484375 C 6.476562 -9.441406 6.550781 -9.394531 6.65625 -9.34375 C 6.769531 -9.289062 6.859375 -9.25 6.921875 -9.21875 C 6.984375 -9.195312 7.085938 -9.15625 7.234375 -9.09375 C 7.378906 -9.039062 7.488281 -9 7.5625 -8.96875 C 7.632812 -8.945312 7.753906 -8.910156 7.921875 -8.859375 C 8.097656 -8.804688 8.226562 -8.769531 8.3125 -8.75 C 8.875 -8.582031 9.359375 -8.398438 9.765625 -8.203125 C 10.179688 -8.003906 10.617188 -7.734375 11.078125 -7.390625 C 11.535156 -7.054688 11.890625 -6.625 12.140625 -6.09375 C 12.398438 -5.570312 12.53125 -4.976562 12.53125 -4.3125 C 12.53125 -1.164062 10.34375 0.40625 5.96875 0.40625 C 4.976562 0.40625 4.035156 0.253906 3.140625 -0.046875 C 2.253906 -0.359375 1.613281 -0.664062 1.21875 -0.96875 L 0.625 -1.453125 L 2.5625 -4.71875 C 2.707031 -4.59375 2.894531 -4.441406 3.125 -4.265625 C 3.363281 -4.097656 3.785156 -3.863281 4.390625 -3.5625 C 5.003906 -3.269531 5.539062 -3.125 6 -3.125 C 6.988281 -3.125 7.484375 -3.457031 7.484375 -4.125 C 7.484375 -4.4375 7.351562 -4.675781 7.09375 -4.84375 C 6.84375 -5.019531 6.414062 -5.210938 5.8125 -5.421875 C 5.207031 -5.640625 4.738281 -5.835938 4.40625 -6.015625 C 3.539062 -6.472656 2.851562 -6.984375 2.34375 -7.546875 C 1.84375 -8.109375 1.59375 -8.859375 1.59375 -9.796875 C 1.59375 -11.203125 2.132812 -12.296875 3.21875 -13.078125 C 4.3125 -13.859375 5.785156 -14.25 7.640625 -14.25 Z M 7.640625 -14.25 "/></g></g></g><g fill="#ffffff" fill-opacity="1"><g transform="translate(164.909622, 194.249987)"><g><path d="M 2.4375 -13.84375 L 2.4375 -19.015625 L 7.203125 -19.015625 L 7.203125 -13.84375 L 10.125 -13.84375 L 10.125 -10.203125 L 7.203125 -10.203125 L 7.203125 -5.8125 C 7.203125 -4.53125 7.5625 -3.890625 8.28125 -3.890625 C 8.46875 -3.890625 8.660156 -3.925781 8.859375 -4 C 9.054688 -4.070312 9.207031 -4.144531 9.3125 -4.21875 L 9.484375 -4.3125 L 10.671875 -0.453125 C 9.640625 0.117188 8.46875 0.40625 7.15625 0.40625 C 6.257812 0.40625 5.484375 0.25 4.828125 -0.0625 C 4.179688 -0.382812 3.691406 -0.8125 3.359375 -1.34375 C 3.023438 -1.875 2.785156 -2.429688 2.640625 -3.015625 C 2.503906 -3.597656 2.4375 -4.222656 2.4375 -4.890625 L 2.4375 -10.203125 L 0.4375 -10.203125 L 0.4375 -13.84375 Z M 2.4375 -13.84375 "/></g></g></g><g fill="#ffffff" fill-opacity="1"><g transform="translate(175.520617, 194.249987)"><g><path d="M 2.5625 -1.703125 C 1.269531 -3.117188 0.625 -4.851562 0.625 -6.90625 C 0.625 -8.957031 1.269531 -10.691406 2.5625 -12.109375 C 3.863281 -13.535156 5.507812 -14.25 7.5 -14.25 C 9.34375 -14.25 10.859375 -13.675781 12.046875 -12.53125 L 12.046875 -13.84375 L 16.828125 -13.84375 L 16.828125 0 L 12.09375 0 L 12.09375 -1.5625 L 12.046875 -1.5625 C 10.859375 -0.25 9.34375 0.40625 7.5 0.40625 C 5.507812 0.40625 3.863281 -0.296875 2.5625 -1.703125 Z M 6.625 -9.25 C 6.007812 -8.644531 5.703125 -7.863281 5.703125 -6.90625 C 5.703125 -5.957031 6 -5.179688 6.59375 -4.578125 C 7.1875 -3.972656 7.96875 -3.671875 8.9375 -3.671875 C 9.875 -3.671875 10.644531 -3.976562 11.25 -4.59375 C 11.851562 -5.207031 12.15625 -5.976562 12.15625 -6.90625 C 12.15625 -7.863281 11.84375 -8.644531 11.21875 -9.25 C 10.59375 -9.863281 9.832031 -10.171875 8.9375 -10.171875 C 8.019531 -10.171875 7.25 -9.863281 6.625 -9.25 Z M 6.625 -9.25 "/></g></g></g><g fill="#ffffff" fill-opacity="1"><g transform="translate(193.961626, 194.249987)"><g><path d="M 1.625 0 L 1.625 -13.84375 L 6.40625 -13.84375 L 6.40625 -11.859375 L 6.453125 -11.859375 C 6.484375 -11.929688 6.539062 -12.019531 6.625 -12.125 C 6.707031 -12.226562 6.882812 -12.414062 7.15625 -12.6875 C 7.425781 -12.957031 7.710938 -13.203125 8.015625 -13.421875 C 8.328125 -13.640625 8.722656 -13.832031 9.203125 -14 C 9.691406 -14.164062 10.1875 -14.25 10.6875 -14.25 C 11.207031 -14.25 11.71875 -14.175781 12.21875 -14.03125 C 12.726562 -13.894531 13.101562 -13.753906 13.34375 -13.609375 L 13.71875 -13.390625 L 11.71875 -9.34375 C 11.125 -9.84375 10.296875 -10.09375 9.234375 -10.09375 C 8.660156 -10.09375 8.164062 -9.96875 7.75 -9.71875 C 7.332031 -9.46875 7.035156 -9.160156 6.859375 -8.796875 C 6.691406 -8.441406 6.570312 -8.132812 6.5 -7.875 C 6.4375 -7.625 6.40625 -7.429688 6.40625 -7.296875 L 6.40625 0 Z M 1.625 0 "/></g></g></g><g fill="#ffffff" fill-opacity="1"><g transform="translate(207.407632, 194.249987)"><g><path d="M 1.625 0 L 1.625 -13.84375 L 6.40625 -13.84375 L 6.40625 -11.859375 L 6.453125 -11.859375 C 6.484375 -11.929688 6.539062 -12.019531 6.625 -12.125 C 6.707031 -12.226562 6.882812 -12.414062 7.15625 -12.6875 C 7.425781 -12.957031 7.710938 -13.203125 8.015625 -13.421875 C 8.328125 -13.640625 8.722656 -13.832031 9.203125 -14 C 9.691406 -14.164062 10.1875 -14.25 10.6875 -14.25 C 11.207031 -14.25 11.71875 -14.175781 12.21875 -14.03125 C 12.726562 -13.894531 13.101562 -13.753906 13.34375 -13.609375 L 13.71875 -13.390625 L 11.71875 -9.34375 C 11.125 -9.84375 10.296875 -10.09375 9.234375 -10.09375 C 8.660156 -10.09375 8.164062 -9.96875 7.75 -9.71875 C 7.332031 -9.46875 7.035156 -9.160156 6.859375 -8.796875 C 6.691406 -8.441406 6.570312 -8.132812 6.5 -7.875 C 6.4375 -7.625 6.40625 -7.429688 6.40625 -7.296875 L 6.40625 0 Z M 1.625 0 "/></g></g></g><g fill="#ffffff" fill-opacity="1"><g transform="translate(220.853637, 194.249987)"><g><path d="M 12.125 -13.84375 L 17.625 -13.84375 L 6.75 7.015625 L 1.234375 7.015625 L 6.015625 -2.15625 L -0.546875 -13.84375 L 4.96875 -13.84375 L 8.828125 -6.75 Z M 12.125 -13.84375 "/></g></g></g><g fill="#ffffff" fill-opacity="1"><g transform="translate(237.944644, 194.249987)"><g><path d="M 1.625 0 L 1.625 -13.84375 L 6.40625 -13.84375 L 6.40625 -12.390625 L 6.453125 -12.390625 C 7.691406 -13.628906 9.015625 -14.25 10.421875 -14.25 C 11.429688 -14.25 12.375 -14.039062 13.25 -13.625 C 14.132812 -13.21875 14.800781 -12.582031 15.25 -11.71875 C 16.65625 -13.40625 18.1875 -14.25 19.84375 -14.25 C 21.320312 -14.25 22.59375 -13.832031 23.65625 -13 C 24.71875 -12.175781 25.25 -10.882812 25.25 -9.125 L 25.25 0 L 20.46875 0 L 20.46875 -7.828125 C 20.46875 -8.566406 20.265625 -9.179688 19.859375 -9.671875 C 19.453125 -10.171875 18.84375 -10.421875 18.03125 -10.421875 C 17.332031 -10.421875 16.796875 -10.207031 16.421875 -9.78125 C 16.054688 -9.363281 15.859375 -8.859375 15.828125 -8.265625 L 15.828125 0 L 11.046875 0 L 11.046875 -7.828125 C 11.046875 -8.566406 10.84375 -9.179688 10.4375 -9.671875 C 10.03125 -10.171875 9.421875 -10.421875 8.609375 -10.421875 C 7.867188 -10.421875 7.316406 -10.191406 6.953125 -9.734375 C 6.585938 -9.273438 6.40625 -8.726562 6.40625 -8.09375 L 6.40625 0 Z M 1.625 0 "/></g></g></g><g fill="#ffffff" fill-opacity="1"><g transform="translate(264.539647, 194.249987)"><g><path d="M 15.640625 -6.265625 L 5.59375 -6.265625 C 5.59375 -5.296875 5.90625 -4.578125 6.53125 -4.109375 C 7.164062 -3.640625 7.851562 -3.40625 8.59375 -3.40625 C 9.363281 -3.40625 9.972656 -3.503906 10.421875 -3.703125 C 10.867188 -3.910156 11.382812 -4.320312 11.96875 -4.9375 L 15.421875 -3.21875 C 13.972656 -0.800781 11.578125 0.40625 8.234375 0.40625 C 6.148438 0.40625 4.359375 -0.304688 2.859375 -1.734375 C 1.367188 -3.171875 0.625 -4.894531 0.625 -6.90625 C 0.625 -8.925781 1.367188 -10.65625 2.859375 -12.09375 C 4.359375 -13.53125 6.148438 -14.25 8.234375 -14.25 C 10.429688 -14.25 12.21875 -13.613281 13.59375 -12.34375 C 14.96875 -11.082031 15.65625 -9.269531 15.65625 -6.90625 C 15.65625 -6.582031 15.648438 -6.367188 15.640625 -6.265625 Z M 5.71875 -8.90625 L 10.984375 -8.90625 C 10.878906 -9.625 10.597656 -10.175781 10.140625 -10.5625 C 9.679688 -10.957031 9.09375 -11.15625 8.375 -11.15625 C 7.582031 -11.15625 6.953125 -10.945312 6.484375 -10.53125 C 6.015625 -10.113281 5.757812 -9.570312 5.71875 -8.90625 Z M 5.71875 -8.90625 "/></g></g></g><g fill="#ffffff" fill-opacity="1"><g transform="translate(280.820652, 194.249987)"><g><path d="M 15.640625 -6.265625 L 5.59375 -6.265625 C 5.59375 -5.296875 5.90625 -4.578125 6.53125 -4.109375 C 7.164062 -3.640625 7.851562 -3.40625 8.59375 -3.40625 C 9.363281 -3.40625 9.972656 -3.503906 10.421875 -3.703125 C 10.867188 -3.910156 11.382812 -4.320312 11.96875 -4.9375 L 15.421875 -3.21875 C 13.972656 -0.800781 11.578125 0.40625 8.234375 0.40625 C 6.148438 0.40625 4.359375 -0.304688 2.859375 -1.734375 C 1.367188 -3.171875 0.625 -4.894531 0.625 -6.90625 C 0.625 -8.925781 1.367188 -10.65625 2.859375 -12.09375 C 4.359375 -13.53125 6.148438 -14.25 8.234375 -14.25 C 10.429688 -14.25 12.21875 -13.613281 13.59375 -12.34375 C 14.96875 -11.082031 15.65625 -9.269531 15.65625 -6.90625 C 15.65625 -6.582031 15.648438 -6.367188 15.640625 -6.265625 Z M 5.71875 -8.90625 L 10.984375 -8.90625 C 10.878906 -9.625 10.597656 -10.175781 10.140625 -10.5625 C 9.679688 -10.957031 9.09375 -11.15625 8.375 -11.15625 C 7.582031 -11.15625 6.953125 -10.945312 6.484375 -10.53125 C 6.015625 -10.113281 5.757812 -9.570312 5.71875 -8.90625 Z M 5.71875 -8.90625 "/></g></g></g><g fill="#ffffff" fill-opacity="1"><g transform="translate(296.966662, 194.249987)"><g><path d="M 2.4375 -13.84375 L 2.4375 -19.015625 L 7.203125 -19.015625 L 7.203125 -13.84375 L 10.125 -13.84375 L 10.125 -10.203125 L 7.203125 -10.203125 L 7.203125 -5.8125 C 7.203125 -4.53125 7.5625 -3.890625 8.28125 -3.890625 C 8.46875 -3.890625 8.660156 -3.925781 8.859375 -4 C 9.054688 -4.070312 9.207031 -4.144531 9.3125 -4.21875 L 9.484375 -4.3125 L 10.671875 -0.453125 C 9.640625 0.117188 8.46875 0.40625 7.15625 0.40625 C 6.257812 0.40625 5.484375 0.25 4.828125 -0.0625 C 4.179688 -0.382812 3.691406 -0.8125 3.359375 -1.34375 C 3.023438 -1.875 2.785156 -2.429688 2.640625 -3.015625 C 2.503906 -3.597656 2.4375 -4.222656 2.4375 -4.890625 L 2.4375 -10.203125 L 0.4375 -10.203125 L 0.4375 -13.84375 Z M 2.4375 -13.84375 "/></g></g></g></svg>